<?xml version="1.0" standalone="no"?>
<!DOCTYPE svg PUBLIC "-//W3C//DTD SVG 20010904//EN"
 "http://www.w3.org/TR/2001/REC-SVG-20010904/DTD/svg10.dtd">
<svg version="1.0" xmlns="http://www.w3.org/2000/svg"
 width="75.000000pt" height="75.000000pt" viewBox="0 0 75.000000 75.000000"
 preserveAspectRatio="xMidYMid meet">
<metadata>
Created by potrace 1.11, written by Peter Selinger 2001-2013
</metadata>
<g transform="translate(0.000000,75.000000) scale(0.100000,-0.100000)"
fill="#000000" stroke="none">
<path d="M360 409 c-14 -12 -51 -34 -82 -50 -31 -16 -59 -33 -63 -39 -3 -5
-35 -10 -71 -10 l-64 0 0 -80 0 -80 62 0 c50 0 66 -4 86 -22 21 -21 35 -23
140 -26 158 -4 236 7 241 33 2 11 8 23 15 27 14 9 17 88 4 105 -6 7 -7 17 -3
23 4 6 1 17 -5 25 -10 12 -38 15 -121 15 -60 0 -109 3 -109 8 0 4 9 13 21 20
14 9 19 21 17 40 -4 35 -34 39 -68 11z m31 -46 c-52 -36 -4 -53 145 -53 41 0
74 -4 74 -9 0 -11 -60 -21 -127 -21 -29 0 -53 -4 -53 -10 0 -6 38 -10 95 -10
73 0 95 -3 95 -14 0 -13 -77 -26 -156 -26 -19 0 -34 -4 -34 -10 0 -6 39 -10
96 -10 72 0 95 -3 92 -12 -3 -8 -38 -16 -96 -22 -52 -4 -92 -13 -92 -18 0 -7
27 -9 80 -4 64 5 80 4 80 -7 0 -11 -29 -15 -127 -20 -149 -7 -210 2 -235 33
-16 20 -25 22 -73 17 l-55 -6 0 71 0 70 58 -7 c51 -6 60 -4 77 15 11 12 43 34
70 47 28 14 61 35 75 45 l25 20 3 -22 c2 -14 -4 -27 -17 -37z"/>
</g>
</svg>
